<?xml version="1.0" standalone="no"?>
<!DOCTYPE svg PUBLIC "-//W3C//DTD SVG 20010904//EN"
 "http://www.w3.org/TR/2001/REC-SVG-20010904/DTD/svg10.dtd">
<svg version="1.0" xmlns="http://www.w3.org/2000/svg"
 width="640.000000pt" height="341.000000pt" viewBox="0 0 640.000000 341.000000"
 preserveAspectRatio="xMidYMid meet">

<g transform="translate(0.000000,341.000000) scale(0.100000,-0.100000)"
fill="#000000" stroke="none">
<path d="M1730 1900 l0 -620 109 0 110 0 3 35 3 35 36 -24 c65 -44 155 -68
239 -64 235 11 374 214 357 523 -10 181 -73 299 -192 360 -54 28 -67 30 -164
30 -99 0 -111 -2 -176 -33 -38 -18 -78 -40 -87 -49 -17 -15 -18 -6 -18 205 l0
222 -110 0 -110 0 0 -620z m548 74 c49 -36 76 -107 80 -215 11 -264 -117 -357
-349 -253 l-59 27 0 184 0 183 45 33 c97 68 220 86 283 41z"/>
<path d="M2770 1900 l0 -620 108 0 108 0 -3 568 c-2 312 -6 591 -9 620 l-5 52
-100 0 -99 0 0 -620z"/>
<path d="M3459 2166 c-199 -57 -299 -208 -299 -448 0 -240 104 -390 307 -443
68 -18 181 -19 255 -4 216 46 347 245 324 496 -18 197 -110 332 -266 389 -60
22 -258 28 -321 10z m234 -180 c44 -18 93 -77 109 -128 7 -24 12 -86 12 -138
0 -114 -14 -168 -57 -217 -41 -47 -82 -63 -159 -63 -101 0 -171 53 -198 149
-13 47 -13 215 0 262 27 96 97 149 198 149 34 0 77 -6 95 -14z"/>
<path d="M4459 2164 c-159 -48 -270 -216 -256 -385 7 -80 33 -145 84 -207 l36
-44 -24 -19 c-13 -10 -27 -19 -31 -19 -3 0 -20 -21 -38 -47 -29 -44 -31 -54
-28 -110 3 -53 9 -67 33 -93 25 -26 27 -32 15 -40 -8 -5 -18 -10 -22 -10 -17
0 -82 -67 -94 -97 -18 -42 -18 -115 0 -156 32 -74 126 -138 246 -168 84 -21
282 -18 350 5 96 33 164 72 212 123 63 69 80 106 86 190 4 60 1 79 -18 118
-47 97 -136 132 -372 145 -157 8 -201 18 -222 52 -8 13 -6 22 8 36 15 17 22
19 54 10 20 -6 75 -8 122 -6 70 4 96 10 145 35 184 94 261 311 174 490 -12 24
-19 46 -16 49 2 3 22 7 43 10 22 3 54 7 72 10 l32 5 0 69 0 70 -272 -1 c-207
0 -284 -4 -319 -15z m211 -196 c55 -38 74 -71 78 -143 8 -125 -57 -200 -173
-200 -114 1 -168 54 -174 172 -3 64 0 78 22 116 33 56 74 76 153 77 47 0 69
-5 94 -22z m67 -834 c57 -16 73 -34 73 -84 0 -72 -93 -115 -250 -115 -154 1
-220 36 -220 118 0 31 7 46 33 71 l32 32 140 -4 c80 -2 162 -10 192 -18z"/>
<path d="M1307 1503 c-4 -3 -7 -55 -7 -115 l0 -108 110 0 110 0 0 115 0 115
-103 0 c-57 0 -107 -3 -110 -7z"/>
</g>
</svg>
